<svg xmlns="http://www.w3.org/2000/svg" viewBox="0 0 24 24" fill="#FF7A59">
  <path d="M18.164 7.582V5.278a1.55 1.55 0 0 0 .895-1.4V3.85a1.55 1.55 0 0 0-1.55-1.55h-.028a1.55 1.55 0 0 0-1.55 1.55v.028a1.55 1.55 0 0 0 .895 1.4v2.304a4.4 4.4 0 0 0-1.87.82L9.19 4.39a1.74 1.74 0 0 0 .058-.43 1.75 1.75 0 1 0-1.75 1.75c.28 0 .543-.068.776-.186l5.704 3.957a4.42 4.42 0 0 0-.582 2.18 4.43 4.43 0 0 0 .72 2.43l-1.734 1.733a1.38 1.38 0 0 0-.4-.063 1.41 1.41 0 1 0 1.41 1.41 1.38 1.38 0 0 0-.063-.4l1.713-1.713A4.44 4.44 0 1 0 18.164 7.582zm-1.683 6.61a2.19 2.19 0 1 1 0-4.38 2.19 2.19 0 0 1 0 4.38z"/>
</svg>
