<svg viewBox="0 0 100 100" xmlns="http://www.w3.org/2000/svg">
  <defs>
    <linearGradient id="brandGradient" x1="0%" y1="0%" x2="100%" y2="100%">
      <stop offset="0%" stop-color="#1f2937" />
      <stop offset="100%" stop-color="#4b5563" />
    </linearGradient>
  </defs>
  
  <!-- Background circle -->
  <circle cx="50" cy="50" r="45" fill="url(#brandGradient)" />
  
  <!-- Photo-realistic Ostrich head for favicon -->
  <g transform="translate(20, 15) scale(0.7)">
    <!-- Hoofd vorm -->
    <ellipse cx="45" cy="35" rx="20" ry="25" fill="white" opacity="0.95" />
    
    <!-- Pluizige veren bovenop hoofd -->
    <g opacity="0.90">
      <path d="M30 15 Q35 10 40 15 Q45 8 50 15 Q55 10 60 15" 
            stroke="white" 
            stroke-width="2" 
            fill="none" 
            stroke-linecap="round" />
      <path d="M32 20 Q37 12 42 20 Q47 10 52 20 Q57 12 62 20" 
            stroke="#f3f4f6" 
            stroke-width="1.5" 
            fill="none" 
            stroke-linecap="round" />
    </g>
    
    <!-- Grote expressieve ogen -->
    <g>
      <!-- Linker oog -->
      <ellipse cx="35" cy="30" rx="5" ry="6" fill="#1f2937" />
      <ellipse cx="37" cy="28" rx="2" ry="2.5" fill="white" />
      <circle cx="37.5" cy="29" r="0.8" fill="#1f2937" />
      
      <!-- Rechter oog -->
      <ellipse cx="55" cy="30" rx="5" ry="6" fill="#1f2937" />
      <ellipse cx="53" cy="28" rx="2" ry="2.5" fill="white" />
      <circle cx="52.5" cy="29" r="0.8" fill="#1f2937" />
    </g>
    
    <!-- Snavel -->
    <ellipse cx="45" cy="45" rx="8" ry="4" fill="#6b7280" />
    <ellipse cx="45" cy="43" rx="6" ry="2" fill="#9ca3af" />
    
    <!-- Neusgaten -->
    <ellipse cx="42" cy="43" rx="1" ry="0.8" fill="#374151" />
    <ellipse cx="48" cy="43" rx="1" ry="0.8" fill="#374151" />
    
    <!-- Nek -->
    <ellipse cx="45" cy="65" rx="12" ry="15" fill="white" opacity="0.90" />
    
    <!-- Lichaam hint -->
    <ellipse cx="45" cy="85" rx="15" ry="10" fill="white" opacity="0.70" />
  </g>
</svg>