<svg viewBox="0 0 100 100" xmlns="http://www.w3.org/2000/svg">
  <defs>
    <linearGradient id="brandGradient" x1="0%" y1="0%" x2="100%" y2="100%">
      <stop offset="0%" stop-color="#1f2937" />
      <stop offset="100%" stop-color="#4b5563" />
    </linearGradient>
  </defs>
  
  <!-- Background circle -->
  <circle cx="50" cy="50" r="45" fill="url(#brandGradient)" />
  
  <!-- Realistic Ostrich silhouet -->
  <g transform="translate(18, 10) scale(0.6)">
    <!-- Hoofdlichaam -->
    <ellipse cx="50" cy="70" rx="22" ry="30" fill="white" opacity="0.95" />
    
    <!-- Lange nek -->
    <ellipse cx="40" cy="35" rx="4" ry="25" fill="white" opacity="0.95" />
    
    <!-- Klein hoofd -->
    <ellipse cx="38" cy="15" rx="6" ry="8" fill="white" opacity="0.95" />
    
    <!-- Kleine snavel -->
    <ellipse cx="34" cy="13" rx="3" ry="1.5" fill="#374151" />
    
    <!-- Oog -->
    <circle cx="40" cy="13" r="1.5" fill="#111827" />
    <circle cx="40.5" cy="12.5" r="0.5" fill="white" />
    
    <!-- Lange poten -->
    <rect x="44" y="95" width="2.5" height="20" fill="#6b7280" />
    <rect x="52" y="95" width="2.5" height="20" fill="#6b7280" />
    
    <!-- Voeten -->
    <ellipse cx="45" cy="117" rx="4" ry="2" fill="#374151" />
    <ellipse cx="53" cy="117" rx="4" ry="2" fill="#374151" />
    
    <!-- Vleugel detail -->
    <path d="M32 60 Q45 55 58 65 Q60 70 55 75 Q45 80 35 75 Q30 68 32 60" 
          fill="white" 
          stroke="#6b7280" 
          stroke-width="1" 
          opacity="0.8" />
  </g>
</svg>